<?xml version="1.0" encoding="UTF-8" standalone="no"?>
<svg xmlns="http://www.w3.org/2000/svg" xmlns:xlink="http://www.w3.org/1999/xlink" viewBox="0 0 64 16" width="64" height="16">
  <path style="fill:#c41f3e" d="m 10.101118,11.785449 c -0.6286201,0.488983 -1.4095367,0.742229 -2.2061239,0.714716 -2.2706774,0 -3.7779866,-1.737077 -3.7779866,-4.4990158 0,-2.8063357 1.4922669,-4.5209017 3.7779866,-4.5209017 0.7451936,-0.023136 1.4772256,0.1957181 2.0870441,0.6227964 L 11.677996,1.8031993 C 10.623192,1.0984889 9.5890719,0.66390704 7.5841313,0.66390704 c -4.3621084,0 -6.84901174,2.94327586 -6.84901174,7.33724216 0,4.5065188 2.60097034,7.3153558 6.84901174,7.3153558 2.7112767,0 3.7629457,-0.927942 4.2455347,-1.258099 z" />
  <path style="fill:#c41f3e" d="m 40.858371,11.762939 c -0.636767,0.499612 -1.428339,0.762863 -2.238087,0.744729 -2.270678,0 -3.777988,-1.737077 -3.777988,-4.4990152 0,-2.8063357 1.504803,-4.5209017 3.777988,-4.5209017 0.744566,-0.022511 1.476598,0.1957181 2.086416,0.6227964 L 42.403285,1.8107029 C 41.348482,1.1059925 40.313734,0.67141061 38.30942,0.67141061 c -4.354587,0 -6.849638,2.94327589 -6.849638,7.33724219 0,4.5065192 2.601597,7.3153562 6.849638,7.3153562 2.71065,0 3.762946,-0.927942 4.245536,-1.258099 z" />
  <path style="fill:#c41f3e" d="m 24.677832,0.92215496 c 3.126177,0 4.777636,1.25309644 4.777636,3.62297434 0,1.7145661 -1.11685,2.5949851 -2.191082,3.0320682 l -0.0075,0.029389 c 1.258493,0.3576703 2.735719,1.1736837 2.735719,3.4197515 0,2.60499 -1.927225,4.039423 -5.424432,4.039423 h -4.97383 V 0.92215496 Z m -0.42305,8.00255884 h -1.37256 v 3.6623672 h 1.412671 c 1.425206,0 2.372837,-0.558391 2.372837,-1.788977 0,-1.3031188 -0.94011,-1.8733902 -2.412948,-1.8733902 z m 0,-5.6501892 h -1.37256 V 6.557337 h 1.28795 c 1.244078,0 2.14157,-0.4964863 2.14157,-1.6251485 0,-0.7572354 -0.462535,-1.6576639 -2.05696,-1.6576639 z" />
  <polygon style="fill:#c41f3e" points="35.943386,34.213119 35.943386,2.0941385 28.505351,2.0941385 28.505351,34.213119 " transform="matrix(0.44035044,0,0,0.44035044,0.73511956,-7.4280992e-7)" />
  <path style="fill:#c41f3e" d="M 57.820393,0.614446 C 57.52708,0.21112904 57.050757,-0.01898048 56.551871,0.00165434 h -5.27276 c 0.507032,-0.02063482 0.988996,0.21635298 1.281054,0.6303 0.532102,0.70721156 5.434461,7.36913236 5.434461,7.36913236 0,0 -4.902359,6.6600443 -5.434461,7.3697563 -0.292688,0.412697 -0.774647,0.649059 -1.281054,0.627799 h 5.27276 c 0.498886,0.02126 0.974579,-0.208224 1.268522,-0.61029 l 5.444488,-7.3872653 z" />
  <path style="fill:#8b1d41" d="m 53.915744,2.4605747 v 0 C 53.24701,1.5576449 52.719294,0.84292975 52.560103,0.63157916 c -0.291432,-0.41332173 -0.774021,-0.65093482 -1.280429,-0.6303 -0.500137,-0.02063482 -0.977085,0.2094747 -1.271027,0.61341696 l -5.444489,7.38664068 5.444489,7.3847642 c 0.294568,0.402691 0.771515,0.632176 1.271027,0.61029 0.505777,0.02126 0.988366,-0.215102 1.280429,-0.627799 l 1.355641,-1.831496 -4.081331,-5.5357592 z" />
</svg>
